# xmcd
#
# Track frame offsets:
#	150
#	23988
#	37635
#	56646
#	73842
#	92345
#	103652
#	117991
#	134918
#	153364
#	163940
#	181222
#
# Disc length: 2698 seconds
#
# Revision: 0
# Processed by: cddbd v1.5.2PL0 Copyright (c) Steve Scherf et al.
# Submitted via: EZCDAudioConverter 3.1.0.1
#
DISCID=a00a880c
DTITLE=The Nighthawks - Back Porch Party
DYEAR=2015
DGENRE=Blues
TTITLE0=Rock This House
TTITLE1=Walkin' After Midnight
TTITLE2=Down In The Hole
TTITLE3=Matchbox
TTITLE4=Tiger In Your Tank
TTITLE5=Jana Lea
TTITLE6=Rollin' Stone
TTITLE7=Guard My Heart
TTITLE8=Down To My Last Million Tears
TTITLE9=Hey Miss Hey
TTITLE10=Rooster Blues
TTITLE11=\nBack To The City
EXTD=
EXTT0=
EXTT1=
EXTT2=
EXTT3=
EXTT4=
EXTT5=
EXTT6=
EXTT7=
EXTT8=
EXTT9=
EXTT10=
EXTT11=
PLAYORDER=
